<svg width="162" height="87" viewBox="0 0 162 87" fill="none" xmlns="http://www.w3.org/2000/svg">
<path d="M40.2499 1.16576C37.1981 6.13749 35.2572 10.4928 34.0659 15.0759C32.9415 19.391 32.4998 22.902 32.4998 27.5387C32.4998 32.0816 32.821 34.8154 33.8116 38.7955C34.9627 43.3652 36.569 47.4659 38.5902 50.9903C39.5405 52.652 40.9861 54.8096 41.1468 54.8096C41.2271 54.8096 41.6956 54.1931 42.1774 53.4293C45.9789 47.5597 48.3883 40.8592 49.4725 33.1671C49.8205 30.7147 49.8205 24.2153 49.4725 21.9774C48.3749 14.8347 47.2907 11.1762 44.7742 6.1643C43.516 3.65833 41.3342 -0.000118256 41.0932 -0.000118256C41.0263 -0.000118256 40.6515 0.522514 40.2499 1.16576ZM42.3648 6.96835C45.3899 13.0122 46.7686 17.8365 47.3978 24.7111C47.5985 26.9491 47.4647 32.2693 47.1434 34.7082L46.9025 36.5173L46.8222 33.9712C46.6348 28.4098 45.738 24.1215 43.5561 18.3189C42.8333 16.4026 41.2672 13.1328 41.0798 13.1328C40.8657 13.1328 39.1791 16.7376 38.4295 18.8013C36.4753 24.0947 35.565 28.5974 35.3777 33.9444C35.3375 35.2443 35.284 36.3029 35.2572 36.2895C35.2438 36.2627 35.1233 35.2175 34.9895 33.9712C34.695 31.1704 34.6548 25.6492 34.9092 23.5855C35.6721 17.4211 37.2784 12.1143 40.1027 6.37871C40.9326 4.6902 41.0263 4.55619 41.2003 4.784C41.294 4.91801 41.8294 5.89628 42.3648 6.96835ZM42.2176 35.9143C43.0475 38.4203 43.2884 40.0552 43.3018 42.9498C43.3018 44.5311 43.2349 45.8712 43.1144 46.501C42.8735 47.8679 42.1373 50.2667 41.5751 51.5398L41.12 52.5716L40.8523 52.049C40.3169 50.9769 39.6342 48.9266 39.2728 47.3051C38.9382 45.7908 38.9114 45.3619 38.898 42.8828C38.8846 40.7252 38.9382 39.8944 39.1256 38.9965C39.4736 37.3482 40.1161 35.3247 40.6515 34.1722L41.12 33.1671L41.4412 33.8372C41.6153 34.199 41.9633 35.137 42.2176 35.9143Z" fill="#138CFE"/>
<path d="M28.7117 26.6142C17.4412 27.3646 7.97771 33.5961 3.13219 43.4859C1.65979 46.4877 0.588958 49.9586 0.32125 52.5583C0.267708 53.0542 0.17401 53.4294 0.120469 53.3892C0.0535417 53.349 0 54.7963 0 56.6054C0 58.4145 0.0535417 59.902 0.120469 59.902C0.17401 59.902 0.267708 60.2773 0.32125 60.7329C0.455104 61.9926 1.03068 64.4181 1.55271 66.0262C4.28333 74.2544 10.5076 80.9548 18.6057 84.3587C26.463 87.6687 35.6588 87.4141 43.3018 83.6886C46.1931 82.2815 48.2812 80.8476 50.7977 78.5695L52.2031 77.2964V66.9241V56.5518H41.1602H30.1172L30.0904 61.3091C30.0636 63.9223 30.0904 66.0664 30.1573 66.0664C30.2109 66.0664 30.5857 65.7984 31.0006 65.4634C32.8077 63.9759 35.2304 63.3327 37.4792 63.7079C39.3397 64.0295 40.8121 64.7532 42.0302 65.9458C44.6538 68.5054 45.2962 72.3247 43.6498 75.6481C43.0073 76.9346 42.1105 77.9798 40.6381 79.1189C38.5768 80.727 36.9036 81.5445 34.2667 82.2413C32.4061 82.7372 29.0062 82.831 27.0787 82.4423C23.5449 81.7187 20.8545 80.2848 18.3916 77.8056C15.7279 75.1254 14.1216 71.936 13.6397 68.3848C13.3988 66.5355 13.5594 63.4801 13.9744 61.9256C14.4295 60.2907 15.0184 58.8434 15.6877 57.6909C18.5522 52.7861 23.4513 49.7709 29.1802 49.3555L30.3849 49.2751L30.3581 37.938L30.318 26.6008L29.8495 26.5874C29.5952 26.5874 29.0865 26.6008 28.7117 26.6142Z" fill="#138CFE"/>
<path d="M55.2818 39.9343V53.2012H57.8919H60.5021V41.6764V30.1516H62.8445H65.187V28.4095V26.6674H60.2344H55.2818V39.9343Z" fill="#138CFE"/>
<path d="M67.6766 27.2302C67.6231 27.5518 67.4759 29.0125 67.3286 30.4866C67.1011 32.8988 66.7397 36.3696 65.4547 49.1005C65.2405 51.2982 65.0531 53.1342 65.0531 53.1476C65.0531 53.1744 66.2176 53.2012 67.6499 53.2012H70.2333L70.3136 52.2899C70.3671 51.7941 70.4742 50.2262 70.5679 48.8057L70.7285 46.2327H71.8395C72.9237 46.2327 72.9505 46.2461 72.9505 46.5543C72.9505 46.7151 73.004 47.613 73.071 48.5243C73.1513 49.4355 73.245 50.8694 73.2851 51.6869L73.3788 53.2012H75.9756C78.144 53.2012 78.5724 53.1744 78.5724 53.0136C78.5724 52.9064 78.3582 50.722 78.1039 48.149C77.8362 45.5895 77.5685 42.9093 77.5015 42.2124C77.4346 41.5156 77.1 38.2592 76.7787 34.9759C76.4441 31.6927 76.1362 28.6239 76.0961 28.1415C76.0425 27.6591 75.989 27.1364 75.9488 26.9622L75.8953 26.6674H71.8127H67.7436L67.6766 27.2302ZM72.0001 32.2958C72.2143 35.311 72.5222 39.9075 72.6292 41.6362L72.7229 43.1505H71.8127H70.9159L70.9962 42.0382C71.197 39.4921 71.7458 30.9289 71.7458 30.5268C71.7458 29.562 71.8529 30.3526 72.0001 32.2958Z" fill="#138CFE"/>
<path d="M83.1636 26.8551C81.9856 27.2303 81.3164 27.8736 80.888 28.9859C80.714 29.4147 80.6605 30.2187 80.6069 32.3897L80.5534 35.2441H83.2439H85.9343V32.8587C85.9343 31.1836 85.9879 30.4197 86.095 30.3125C86.3359 30.0713 86.8044 30.1115 87.0453 30.3929C87.2461 30.6074 87.2729 31.0362 87.2729 33.6494C87.2729 35.2977 87.2193 36.8656 87.139 37.1202C86.9382 37.8304 86.6304 37.9511 84.7698 38.0315L83.1234 38.0985V39.6128V41.1137L84.8635 41.1673C87.38 41.2209 87.1926 40.8993 87.2461 45.4824C87.2863 48.712 87.2595 49.181 87.0721 49.3686C86.8178 49.6232 86.3225 49.65 86.095 49.4222C85.9745 49.3016 85.9343 48.4842 85.9343 46.541V43.8207H83.2439H80.5534L80.6069 47.0637C80.6739 50.6283 80.7542 51.0973 81.5038 52.0086C81.7179 52.2632 82.173 52.6116 82.5344 52.7993C83.1769 53.1343 83.2439 53.1343 86.4698 53.1343C90.2578 53.1343 90.6192 53.0539 91.5428 52.0622C92.4798 51.0437 92.5601 50.5479 92.5601 45.8978V41.8775L92.1853 41.1271C91.7704 40.2694 91.061 39.7066 90.1775 39.5458C89.7358 39.4654 89.6689 39.4118 89.883 39.3447C90.0303 39.2911 90.4854 39.0901 90.8869 38.8757C92.3995 38.1119 92.694 37.0264 92.5869 32.6309C92.5066 29.3879 92.3727 28.7714 91.5562 27.8468C90.6594 26.8283 90.3515 26.7479 86.8044 26.7077C84.5155 26.6809 83.5785 26.7211 83.1636 26.8551Z" fill="#138CFE"/>
<path d="M95.7057 39.9343V53.2012H98.3828H101.06V41.6764V30.1516H101.729H102.398V41.6764V53.2012H105.075H107.753V39.9343V26.6674H101.729H95.7057V39.9343Z" fill="#138CFE"/>
<path d="M110.831 39.9343V53.2012H113.508H116.185V48.7119V44.2226H118.033C120.67 44.2226 121.62 43.8205 122.316 42.4268C122.825 41.4084 122.891 40.4167 122.851 34.8821C122.811 29.8702 122.798 29.6558 122.503 28.9321C122.155 28.0477 121.553 27.391 120.736 27.0158C120.161 26.7478 119.88 26.7344 115.489 26.6942L110.831 26.654V39.9343ZM117.203 30.3392C117.444 30.5268 117.457 30.7413 117.457 35.646C117.457 40.5507 117.444 40.7651 117.203 40.9527C117.055 41.06 116.774 41.1404 116.56 41.1404H116.185V35.646V30.1516H116.56C116.774 30.1516 117.055 30.232 117.203 30.3392Z" fill="#138CFE"/>
<path d="M128.393 26.9221C127.469 27.2437 126.706 27.9942 126.318 28.9457L126.024 29.6827V39.9344V50.1861L126.332 50.9365C126.666 51.7808 127.242 52.424 128.018 52.8395C128.54 53.1209 128.741 53.1343 131.927 53.1343H135.273L136.076 52.7323C137.04 52.2364 137.629 51.352 137.856 50.0655C138.057 48.913 138.057 30.9022 137.856 29.8167C137.602 28.4096 136.973 27.5386 135.862 27.0159C135.313 26.7613 134.992 26.7345 132.181 26.6943C129.464 26.6675 129.022 26.6943 128.393 26.9221ZM132.435 30.3661C132.623 30.5538 132.649 31.599 132.649 39.8674C132.649 48.1357 132.623 49.181 132.435 49.3686C132.154 49.6634 131.619 49.6366 131.445 49.3284C131.364 49.1542 131.311 45.938 131.311 39.8138C131.311 31.5856 131.338 30.5538 131.525 30.3661C131.632 30.2455 131.846 30.1517 131.98 30.1517C132.114 30.1517 132.328 30.2455 132.435 30.3661Z" fill="#138CFE"/>
<path d="M141.082 39.9343V53.2012H143.759H146.436L146.463 45.2544L146.503 37.3211L146.865 39.6663C147.079 40.9527 147.574 44.1154 147.989 46.7017C148.779 51.6869 148.966 52.9332 148.98 53.094C148.98 53.161 149.943 53.2012 151.108 53.2012C153.022 53.2012 153.25 53.1744 153.317 52.96C153.357 52.8393 153.691 50.8024 154.066 48.4439C154.428 46.0853 154.976 42.6413 155.257 40.8053C155.552 38.956 155.82 37.2675 155.846 37.0531C155.873 36.8253 155.913 40.3765 155.927 44.9194L155.94 53.2012H158.55H161.16V39.9343V26.6674H157.747C155.873 26.6674 154.334 26.7076 154.334 26.7612C154.334 26.855 153.745 30.2052 153.049 34.0379C152.928 34.6677 152.781 35.512 152.714 35.914C151.617 42.1722 151.161 44.5174 151.081 44.1556C151.028 43.9277 150.532 41.194 149.984 38.0582C149.421 34.9223 148.873 31.8803 148.779 31.2907C148.672 30.7011 148.444 29.428 148.27 28.4765L147.962 26.7344L144.522 26.6942L141.082 26.6674V39.9343Z" fill="#138CFE"/>
<path d="M55.2818 64.4583V72.3649H73.8607C84.0872 72.3649 107.913 72.4051 126.8 72.4587L161.16 72.5391V64.5521V56.5518H108.221H55.2818V64.4583ZM117.484 59.433C118.434 59.8618 118.903 60.5721 118.97 61.7245L119.023 62.5822H117.805H116.587V61.9255C116.587 61.3895 116.533 61.2153 116.293 61.0545C115.904 60.7731 115.262 60.7865 114.954 61.0679C114.74 61.2689 114.713 61.5503 114.713 64.4583C114.713 67.4735 114.726 67.6477 114.981 67.8755C115.329 68.1838 115.971 68.1838 116.319 67.8755C116.547 67.6745 116.587 67.4601 116.587 66.6427V65.6644H117.792H118.996V66.5623C118.996 67.8487 118.796 68.4518 118.14 69.095C117.725 69.5239 117.417 69.6847 116.881 69.8053C114.7 70.2609 113.013 69.6043 112.504 68.0766C112.33 67.5405 112.29 66.8839 112.33 64.1501L112.371 60.8669L112.772 60.2906C113.669 59.0176 115.744 58.6423 117.484 59.433ZM156.382 59.2454C157.038 59.4196 157.894 60.2638 158.068 60.9339C158.39 62.0998 158.162 63.0512 157.386 63.7079C156.783 64.2305 156.783 64.2439 157.439 64.5655C158.885 65.3026 158.992 68.1704 157.6 69.2692C156.395 70.2207 153.772 70.1001 152.835 69.0548C152.554 68.7466 152.112 67.7549 152.018 67.1787L151.938 66.7499L153.049 66.7097L154.173 66.6695L154.24 67.2055C154.361 68.1168 155.164 68.492 155.82 67.956C156.101 67.7281 156.141 67.5941 156.141 66.6695C156.141 65.7448 156.101 65.6108 155.82 65.383C155.646 65.249 155.338 65.1284 155.124 65.1284H154.735V64.2573V63.3862H155.124C155.753 63.3862 156.114 62.8234 156.047 61.9523C155.967 61.0813 155.779 60.8401 155.137 60.8401C154.535 60.8401 154.334 61.0545 154.24 61.7781L154.16 62.3142H153.049H151.938L152.005 61.8719C152.219 60.7865 152.835 59.7948 153.558 59.4196C154.414 58.9773 155.164 58.9371 156.382 59.2454ZM64.1161 60.17V61.1081H63.1792H62.2422V65.3964V69.6847H61.1714H60.1005L60.0737 65.4232L60.0336 61.1751L59.0698 61.1349L58.0927 61.0947V60.17V59.232H61.1044H64.1161V60.17ZM75.7882 59.3794C76.6449 59.567 77.3945 60.2504 77.622 61.0411C77.8362 61.8183 77.8094 63.3058 77.5685 63.8955C77.0866 65.0346 76.2166 65.517 74.6639 65.5304H73.6198V67.6075V69.6847H72.4151H71.2104V64.4583V59.232H73.1513C74.2087 59.232 75.4001 59.299 75.7882 59.3794ZM89.0666 59.3392C89.1067 59.4062 89.6287 61.6575 90.2177 64.3377C90.8067 67.0179 91.3287 69.3228 91.3689 69.4435C91.4358 69.6579 91.3153 69.6847 90.2445 69.6847H89.0398L88.8658 68.6126L88.6918 67.5405H87.6611H86.617L86.5367 68.0364C86.4832 68.3178 86.4029 68.7868 86.3493 69.0816L86.2556 69.6177L85.0911 69.6579C84.4486 69.6713 83.9266 69.6579 83.9266 69.6177C83.9266 69.4971 86.0682 59.6072 86.1352 59.3928C86.2021 59.2052 88.9461 59.1516 89.0666 59.3392ZM100.658 61.3091V63.3996L101.569 63.3594L102.465 63.3192L102.506 61.2689L102.546 59.2186L103.71 59.2588L104.875 59.299L104.915 64.4851L104.942 69.6847H103.737H102.532V67.6209C102.532 66.4819 102.492 65.4634 102.452 65.3428C102.385 65.182 102.171 65.1284 101.515 65.1284H100.658V67.4065V69.6847H99.4536H98.249V64.4583V59.232H99.4536H100.658V61.3091ZM132.221 60.1968L132.261 61.0947L130.548 61.1349L128.835 61.1751L128.794 65.4232L128.768 69.6847H127.563H126.358V64.4583V59.232L129.276 59.2588L132.181 59.299L132.221 60.1968ZM144.241 64.3243C144.857 67.0849 145.366 69.4301 145.366 69.5105C145.366 69.6445 145.044 69.6847 144.228 69.6847C143.599 69.6847 143.09 69.6713 143.09 69.6445C143.09 69.5239 142.796 67.9828 142.742 67.7683C142.675 67.5673 142.528 67.5405 141.644 67.5673L140.614 67.6075L140.453 68.6126C140.373 69.162 140.293 69.6311 140.293 69.6445C140.279 69.6713 139.771 69.6847 139.141 69.6847C138.245 69.6847 138.004 69.6445 138.004 69.4971C138.004 69.229 140.132 59.5 140.226 59.3526C140.266 59.2856 140.935 59.2454 141.711 59.2588L143.13 59.299L144.241 64.3243Z" fill="#138CFE"/>
<path d="M73.6198 62.381C73.6198 63.8417 73.7001 63.9489 74.53 63.6273C74.9181 63.4799 75.0654 63.3325 75.2126 62.9036C75.5606 61.8986 75.0921 61.1079 74.1552 61.1079H73.6198V62.381Z" fill="#138CFE"/>
<path d="M87.5406 61.5235C87.5272 61.5503 87.3934 62.5017 87.2328 63.6274C87.0588 64.7531 86.9517 65.7045 86.9918 65.7447C87.0186 65.7715 87.3131 65.7983 87.6343 65.7983C88.0359 65.7983 88.2099 65.7447 88.2099 65.6107C88.2099 64.9943 87.5808 61.1616 87.5406 61.5235Z" fill="#138CFE"/>
<path d="M141.484 61.805C141.484 61.8988 141.363 62.7833 141.216 63.775C141.082 64.7666 140.989 65.6243 141.029 65.6913C141.109 65.8253 142.113 65.8387 142.193 65.6913C142.287 65.5439 141.698 61.6442 141.591 61.6442C141.524 61.6442 141.484 61.7246 141.484 61.805Z" fill="#138CFE"/>
<path d="M81.3834 75.7015C79.7905 76.2242 79.0944 77.3766 78.8134 79.9496C78.6126 81.7319 78.8267 83.9699 79.2952 85.0017C79.8976 86.3284 80.9416 86.9717 82.5077 86.9717C84.1006 86.9717 85.2517 86.1006 85.747 84.5059C86.0415 83.5813 86.1619 80.1506 85.9344 79.0249C85.6399 77.4972 85.0911 76.586 84.1006 75.9695C83.6187 75.6613 81.9723 75.5005 81.3834 75.7015ZM83.4179 77.0684C83.8061 77.2694 84.1809 77.9395 84.4085 78.8105C84.5825 79.4806 84.6092 80.0836 84.5557 81.7453C84.462 84.5997 84.1809 85.31 83.003 85.6316C81.7983 85.9532 80.9015 85.444 80.5133 84.1977C80.1653 83.1122 80.1519 79.6146 80.4865 78.5023C80.7409 77.6447 81.3298 76.9612 81.892 76.8808C82.3337 76.8138 83.1101 76.9076 83.4179 77.0684Z" fill="#138CFE"/>
<path d="M132.676 75.7283C132.007 75.9293 131.124 76.8942 130.789 77.7787C130.053 79.762 130.146 83.5947 130.976 85.2296C131.565 86.382 132.542 86.9717 133.881 86.9717C135.273 86.9717 136.264 86.2078 136.665 84.8275C136.799 84.3451 136.946 83.6751 136.986 83.3132L137.067 82.6834H136.344H135.634L135.474 83.6617C135.38 84.1977 135.206 84.8275 135.059 85.0688C134.59 85.8192 133.212 85.9264 132.609 85.2564C131.953 84.5327 131.605 82.1206 131.82 79.8826C132.047 77.6849 132.583 76.8808 133.801 76.8808C134.871 76.8808 135.38 77.3766 135.554 78.5961L135.634 79.1992H136.344C137.16 79.1992 137.147 79.226 136.879 78.0869C136.518 76.519 135.567 75.7149 134.001 75.6345C133.52 75.6077 132.917 75.6479 132.676 75.7283Z" fill="#138CFE"/>
<path d="M55.1479 76.3849V77.055H56.5534H57.9589V81.8793V86.7036H58.6951H59.4313V81.8793V77.055H60.7698C61.5595 77.055 62.1083 77.0014 62.1217 76.921C62.1217 76.8406 62.1351 76.5993 62.1351 76.3849C62.1351 76.1571 62.1217 75.9159 62.1217 75.8489C62.1083 75.7685 60.8501 75.7149 58.6281 75.7149H55.1479V76.3849Z" fill="#138CFE"/>
<path d="M103.603 81.2092V86.7036H104.272H104.942V81.9731L104.955 77.256L106.146 81.9463C106.802 84.5193 107.351 86.65 107.351 86.6768C107.351 86.7036 107.726 86.7036 108.181 86.6768L108.997 86.6366L109.573 84.4255C109.881 83.206 110.416 81.1556 110.751 79.8692L111.353 77.524V82.1071L111.367 86.7036H112.103H112.839V81.2092V75.7015L111.675 75.7417L110.497 75.7819L110.323 76.4519C109.653 79.1589 108.168 84.8811 108.154 84.8007C108.154 84.7337 106.361 77.6178 105.999 76.2107L105.865 75.7149H104.741H103.603V81.2092Z" fill="#138CFE"/>
<path d="M154.468 81.2092V86.7036H155.137H155.806V84.8409V82.9782L156.395 82.2277L156.971 81.4773L158.363 84.0904L159.755 86.6902L160.598 86.7036C161.227 86.7036 161.428 86.6634 161.428 86.516C161.428 86.4088 161.375 86.3016 161.308 86.2748C161.227 86.248 160.424 84.9213 159.514 83.2998L157.841 80.3784L159.447 78.2744C160.331 77.122 161.134 76.1169 161.241 76.0365C161.575 75.7685 161.442 75.7149 160.531 75.7149L159.621 75.7283L157.72 78.4219L155.806 81.1154V78.4219V75.7149H155.137H154.468V81.2092Z" fill="#138CFE"/>
</svg>
